<svg xmlns="http://www.w3.org/2000/svg" viewBox="0 0 1200 420" role="img" aria-label="Animated pixel art cat in workspace" shape-rendering="crispEdges">
  <defs>
    <linearGradient id="bg" x1="0" y1="0" x2="0" y2="1">
      <stop offset="0%" stop-color="#09101f" />
      <stop offset="100%" stop-color="#0d1732" />
    </linearGradient>
    <pattern id="grid" width="18" height="18" patternUnits="userSpaceOnUse">
      <rect width="1" height="1" fill="#1f2d49" />
    </pattern>
    <linearGradient id="mist" x1="0" y1="0" x2="1" y2="0">
      <stop offset="0%" stop-color="#0ea5e9" stop-opacity="0.10" />
      <stop offset="50%" stop-color="#38bdf8" stop-opacity="0.22" />
      <stop offset="100%" stop-color="#2563eb" stop-opacity="0.10" />
    </linearGradient>
  </defs>

  <rect width="1200" height="420" fill="url(#bg)" />
  <rect width="1200" height="420" fill="url(#grid)" opacity="0.42" />
  <rect width="1200" height="420" fill="url(#mist)" />

  <g fill="#67e8f9">
    <rect x="94" y="52" width="6" height="6" opacity="0.2">
      <animate attributeName="opacity" values="0.2;1;0.2" dur="2.1s" repeatCount="indefinite" />
    </rect>
    <rect x="166" y="94" width="6" height="6" opacity="0.18">
      <animate attributeName="opacity" values="0.18;1;0.18" dur="2.4s" repeatCount="indefinite" />
    </rect>
    <rect x="1072" y="64" width="6" height="6" opacity="0.2">
      <animate attributeName="opacity" values="0.2;1;0.2" dur="1.9s" repeatCount="indefinite" />
    </rect>
    <rect x="996" y="108" width="6" height="6" opacity="0.18">
      <animate attributeName="opacity" values="0.18;1;0.18" dur="2.3s" repeatCount="indefinite" />
    </rect>
  </g>

  <g opacity="0" transform="translate(0 12)">
    <animate attributeName="opacity" from="0" to="1" dur="1.1s" fill="freeze" />
    <animateTransform attributeName="transform" type="translate" from="0 12" to="0 0" dur="1.1s" fill="freeze" />
    <animateTransform attributeName="transform" additive="sum" type="translate" values="0 0;0 -3;0 0" dur="2.8s" begin="1.1s" repeatCount="indefinite" />

    <rect x="720" y="126" width="300" height="176" fill="#172742" />
    <rect x="734" y="140" width="272" height="124" fill="#091224" />
    <rect x="850" y="302" width="44" height="20" fill="#233a5b" />
    <rect x="800" y="322" width="146" height="12" fill="#1a2c46" />

    <rect x="742" y="156" width="88" height="8" fill="#22d3ee" opacity="0.9" />
    <rect x="742" y="170" width="118" height="8" fill="#38bdf8" opacity="0.7" />
    <rect x="742" y="184" width="152" height="8" fill="#22d3ee" opacity="0.6" />
    <rect x="742" y="198" width="108" height="8" fill="#38bdf8" opacity="0.7" />
    <rect x="742" y="212" width="182" height="8" fill="#22d3ee" opacity="0.6" />
    <rect x="742" y="226" width="120" height="8" fill="#38bdf8" opacity="0.7" />

    <rect x="930" y="184" width="8" height="14" fill="#facc15">
      <animate attributeName="opacity" values="1;0;1" dur="0.85s" begin="1.1s" repeatCount="indefinite" />
    </rect>

    <rect x="736" y="140" width="16" height="124" fill="#0ea5e9" opacity="0.1">
      <animate attributeName="x" values="736;986;736" dur="4.2s" begin="1.1s" repeatCount="indefinite" />
      <animate attributeName="opacity" values="0;0.25;0" dur="4.2s" begin="1.1s" repeatCount="indefinite" />
    </rect>

    <rect x="594" y="276" width="122" height="18" fill="#16283f" />
    <rect x="612" y="258" width="86" height="18" fill="#213753" />

    <g>
      <rect x="446" y="208" width="100" height="54" fill="#1d4ed8" />
      <rect x="446" y="208" width="100" height="10" fill="#60a5fa" />

      <rect x="468" y="156" width="58" height="52" fill="#3b82f6" />
      <rect x="464" y="142" width="14" height="16" fill="#3b82f6" />
      <rect x="516" y="142" width="14" height="16" fill="#3b82f6" />
      <rect x="468" y="146" width="6" height="10" fill="#93c5fd" />
      <rect x="520" y="146" width="6" height="10" fill="#93c5fd" />

      <rect x="484" y="178" width="8" height="8" fill="#111827" opacity="1">
        <animate attributeName="opacity" values="1;1;0;1;1" dur="4s" repeatCount="indefinite" />
      </rect>
      <rect x="504" y="178" width="8" height="8" fill="#111827" opacity="1">
        <animate attributeName="opacity" values="1;1;0;1;1" dur="4s" repeatCount="indefinite" />
      </rect>
      <rect x="494" y="190" width="8" height="6" fill="#1e3a8a" />
      <rect x="492" y="196" width="12" height="4" fill="#1e3a8a" />

      <rect x="480" y="220" width="30" height="22" fill="#bfdbfe" />
      <rect x="470" y="248" width="16" height="12" fill="#bfdbfe" />
      <rect x="506" y="248" width="16" height="12" fill="#bfdbfe" />

      <rect x="544" y="220" width="18" height="12" fill="#1d4ed8" />
      <rect x="560" y="208" width="12" height="12" fill="#1d4ed8" />
      <rect x="570" y="198" width="10" height="10" fill="#1d4ed8" />

      <rect x="450" y="262" width="24" height="34" fill="#1e40af" />
      <rect x="520" y="262" width="24" height="34" fill="#1e40af" />
      <rect x="444" y="296" width="32" height="10" fill="#111827" />
      <rect x="518" y="296" width="32" height="10" fill="#111827" />

      <rect x="456" y="304" width="12" height="8" fill="#60a5fa" />
      <rect x="526" y="304" width="12" height="8" fill="#60a5fa" />

      <rect x="462" y="170" width="6" height="2" fill="#ffffff" />
      <rect x="524" y="170" width="6" height="2" fill="#ffffff" />
    </g>

    <g fill="#22d3ee" opacity="0.9">
      <rect x="338" y="74" width="24" height="24" />
      <rect x="838" y="72" width="24" height="24" />
      <rect x="1020" y="88" width="24" height="24" />
      <animateTransform attributeName="transform" type="translate" values="0 0;0 -4;0 0" dur="2.2s" repeatCount="indefinite" />
    </g>

    <rect x="0" y="360" width="1200" height="60" fill="#090f1f" />
    <rect x="0" y="360" width="1200" height="2" fill="#223856" />

    <text x="56" y="306" fill="#bfdbfe" font-size="30" font-family="monospace" letter-spacing="1" opacity="0">
      CAT MODE // BUILD MODE
      <animate attributeName="opacity" from="0" to="1" begin="0.8s" dur="0.8s" fill="freeze" />
    </text>
    <text x="56" y="338" fill="#38bdf8" font-size="16" font-family="monospace" opacity="0">
      from concept to production, with craft and consistency
      <animate attributeName="opacity" from="0" to="1" begin="1.1s" dur="0.9s" fill="freeze" />
    </text>

    <rect x="42" y="325" width="8" height="8" fill="#22d3ee" opacity="0">
      <animate attributeName="opacity" values="0;1;0" begin="1.5s" dur="1.1s" repeatCount="indefinite" />
    </rect>
  </g>
</svg>
